<?xml version="1.0" encoding="utf-8"?>
<!DOCTYPE svg PUBLIC "-//W3C//DTD SVG 1.1//EN" "http://www.w3.org/Graphics/SVG/1.1/DTD/svg11.dtd">
<!-- exported from Silhouette Studio® Business Edition V4.5.152ssbe -->
<svg version="1.1" xmlns="http://www.w3.org/2000/svg" xmlns:xlink="http://www.w3.org/1999/xlink" width="171.1706mm" height="25mm" viewBox="0 0 171.1706 25">
<defs>
<path id="path_eb4b17a602b816c568a7c29669aa99b9" d="M 63.95982 3.39979 C 63.90184 3.346299 63.85006 3.29981 63.80534 3.260462 L 63.72276 3.189535 L 43.89389 3.189396 L 43.89388 2.969751 L 127.3922 2.970347 L 127.3922 3.189993 L 107.5664 3.189851 L 107.5199 3.226383 C 106.8903 3.738138 105.3709 5.471048 104.5655 7.072797 C 103.6013 8.990337 103.2827 11.53077 103.4435 12.13448 C 103.46 12.14437 103.3677 12.10521 104.3031 12.59584 C 104.3225 12.60603 105.2555 13.09326 105.275 13.10332 C 106.4377 13.70264 107.0189 13.92261 106.9151 14.05856 C 106.7407 14.28714 103.7429 12.39322 103.2342 12.30838 C 101.3914 12.6769 99.04396 13.55555 98.09516 14.00975 C 97.97077 14.06932 97.07974 14.49657 97.0592 14.5067 C 95.14508 15.44925 92.8717 17.47357 92.5414 17.88493 C 92.74355 18.73291 94.09808 20.68501 93.65952 20.84273 C 93.58742 20.7854 93.44132 20.4805 92.76813 18.97794 C 92.60235 18.60801 92.75764 18.95249 92.59349 18.55411 C 92.42235 18.13882 92.42236 18.1388 92.41884 18.13034 C 92.34574 17.95528 92.36388 18.0034 92.34949 17.97186 C 91.78584 17.70413 88.33281 17.09034 85.80847 17.08908 C 83.71201 17.08802 79.1161 17.61777 78.9277 18.0186 L 78.25539 19.44972 C 77.78353 20.45407 77.74971 20.88448 77.52999 20.82439 C 77.37611 20.78229 77.60372 20.35266 78.08086 19.32548 L 78.67464 18.04717 C 78.76833 17.84544 78.74078 17.87134 78.74369 17.85991 C 78.53999 17.70484 77.50139 16.74343 77.22614 16.44397 C 76.82373 16.33846 76.30027 15.47526 73.04092 13.94322 C 71.7544 13.3385 69.13496 12.48736 68.15845 12.33253 C 68.05744 12.31651 67.974 12.30794 67.91145 12.30787 C 67.87982 12.32332 67.9271 12.2971 67.73717 12.39531 C 67.5218 12.50672 66.89667 12.83245 66.76021 12.90403 C 66.7421 12.91352 66.03732 13.28579 65.85678 13.38142 C 64.89069 13.89318 64.4382 14.1432 64.35005 14.02978 C 64.27322 13.9309 64.6374 13.7928 65.85549 13.1649 C 66.08299 13.04762 66.6293 12.76028 66.7999 12.67228 C 67.86499 12.12296 68.11232 12.41165 67.69594 10.03807 C 67.08917 6.579082 64.82947 4.202157 63.95982 3.39979 Z M 68.88357 3.189573 L 68.88402 3.194351 C 68.91218 3.278756 69.23732 3.373049 70.46703 5.078897 C 71.01163 5.834393 71.45264 6.879723 71.63625 7.62076 C 72.09421 9.469125 71.8958 9.814226 71.88799 9.921284 C 71.88618 9.945989 71.89453 9.958014 71.92342 9.972917 C 71.94135 9.982156 71.99914 9.96472 72.07804 9.932198 C 72.31476 9.83468 72.74125 9.601612 72.84929 9.546791 C 73.08315 9.428165 73.76646 9.083635 73.82477 9.053839 C 74.60062 8.657111 75.44235 8.210351 75.63887 8.072687 C 75.87833 6.424077 74.55062 4.287529 73.65369 3.41055 C 73.58964 3.34791 73.52777 3.291687 73.46883 3.242532 L 73.40214 3.189613 L 68.88357 3.189573 Z M 68.82085 3.412829 C 68.73839 3.328952 68.66676 3.260408 68.60922 3.209806 L 68.58439 3.18957 L 64.0253 3.189541 L 64.02604 3.198757 C 64.06371 3.292902 64.52304 3.358451 65.57417 4.869198 C 65.66533 5.000216 66.59759 6.150112 66.99401 7.091396 C 67.51596 8.330695 67.776 9.257404 67.90363 9.962619 C 68.0677 10.86932 68.01283 11.40993 68.0141 11.77808 C 68.01443 11.87159 68.01839 11.95395 68.03046 12.02839 C 68.03377 12.02701 68.03364 12.03495 68.05354 12.02467 L 71.72146 10.12915 L 71.73549 10.11461 C 71.76672 10.07626 71.78048 9.984452 71.77999 9.853471 C 71.77739 9.146116 71.35914 7.295671 71.03133 6.543928 C 70.50594 5.339015 69.39806 3.999987 68.82085 3.412829 Z M 72.10862 10.15925 C 72.71267 10.32688 73.95361 10.48513 76.30658 11.57691 C 78.19603 12.45355 79.42654 13.58496 79.56357 13.66182 C 79.61417 13.81915 80.17197 14.21516 80.18248 14.22753 C 80.20029 14.24851 80.20918 14.26789 80.21429 14.28514 C 80.22964 14.3369 80.21089 14.36965 80.2962 14.3698 C 80.41286 14.37001 80.31635 14.407 80.98482 12.98526 C 81.3383 12.23346 81.65404 11.54332 81.70911 11.3393 C 81.45717 10.97374 80.11557 9.983929 79.28816 9.534404 C 78.34235 9.020554 76.02901 8.215143 75.80141 8.250835 L 75.78657 8.254577 L 72.12106 10.14769 C 72.10417 10.15641 72.11765 10.15398 72.10862 10.15925 Z M 75.66666 6.429696 C 75.67795 6.47504 75.68839 6.519852 75.69808 6.564026 C 75.82744 7.153298 75.82128 7.637072 75.84816 7.960891 C 75.87887 7.95248 75.8967 7.953574 75.99974 7.909873 C 76.17149 7.837026 76.58002 7.639772 77.67981 7.066717 L 79.20087 6.274098 C 79.47943 6.128945 79.42191 6.159117 79.51511 6.095021 C 79.55664 6.01191 79.57494 5.906433 79.57391 5.785002 C 79.56834 5.12927 78.99911 4.008327 78.48151 3.433246 C 78.39302 3.33494 78.30606 3.252589 78.22366 3.191232 L 78.2214 3.189643 L 73.6904 3.189605 L 73.69098 3.21364 C 73.72606 3.36568 74.22886 3.320354 75.28256 5.401174 C 75.46768 5.766712 75.58759 6.112168 75.66666 6.429696 Z M 85.89554 3.340679 C 85.90492 3.365754 86.41315 4.565402 86.44409 4.576594 C 86.52785 4.606889 86.57402 4.505186 86.78351 4.386278 C 87.10797 4.202053 87.43106 4.155395 87.43056 4.098328 C 87.43028 4.065378 87.17606 3.973054 86.53698 3.634 C 86.23005 3.471163 86.09923 3.401392 86.03038 3.370579 C 85.96153 3.339777 85.95464 3.347886 85.89554 3.340679 Z M 91.02385 14.63082 C 91.02115 14.66328 91.15416 14.87161 91.75642 16.15849 C 91.76333 16.17325 92.04478 16.84424 92.07043 16.90373 C 92.1145 17.00598 92.1519 17.09089 92.18376 17.16167 C 92.40663 17.65704 92.35533 17.45847 92.38439 17.64894 C 92.42905 17.63482 92.47483 17.6104 92.52419 17.57616 C 93.00105 17.24522 93.80766 15.99817 97.08808 14.29154 C 98.53242 13.54008 99.28736 13.30046 100.2835 12.95735 C 102.8276 12.08104 102.9739 12.32607 103.0154 12.19698 C 103.0509 12.08648 102.5857 11.97004 101.4877 11.37926 C 99.81335 10.47843 99.74467 10.4153 99.43152 10.29623 C 99.36536 10.29627 99.29111 10.30165 99.2098 10.31172 C 97.99073 10.46291 95.19552 11.67733 94.62158 11.97506 C 93.37929 12.61954 91.04285 14.40233 91.02385 14.63082 Z M 90.98647 15.03269 C 90.88481 14.79167 90.8649 14.73695 90.83194 14.70532 C 90.56305 14.44722 87.55531 14.01378 85.50046 14.01707 C 83.71879 14.01991 81.07393 14.4327 80.51823 14.67638 C 80.46074 14.70159 80.42557 14.72499 80.41606 14.74593 L 79.06793 17.71763 C 79.0663 17.72121 79.06685 17.72392 79.06776 17.72576 C 79.06867 17.7276 79.06998 17.72857 79.06994 17.72869 C 79.2682 17.70949 83.72616 16.4295 89.03526 17.16456 C 89.0625 17.16833 90.34355 17.34188 90.39799 17.34962 C 90.86044 17.41539 91.81839 17.70896 92.14407 17.71097 C 92.18318 17.52682 92.15957 17.67426 91.51221 16.23304 C 91.50423 16.21525 91.17325 15.4668 91.11891 15.34187 C 91.06334 15.21409 91.02038 15.11304 90.98647 15.03269 Z M 87.44487 3.872282 C 87.53258 3.912556 87.59119 3.934884 87.6031 3.929613 C 87.66667 3.901428 87.67227 3.721174 87.75316 3.508663 C 87.76471 3.478314 87.77783 3.447287 87.79283 3.415962 C 87.88782 3.217888 87.9552 3.235145 87.96193 3.195304 L 87.96169 3.189712 L 86.18665 3.189699 L 86.27213 3.243356 C 86.5675 3.421062 87.15984 3.741422 87.44487 3.872282 Z M 83.59302 7.923739 C 83.98476 7.894979 84.44824 7.686006 85.75994 7.701701 C 86.92194 7.715618 87.40424 7.909319 87.67476 7.923794 C 87.69401 7.849221 87.73421 7.89772 87.59319 7.584078 C 87.58368 7.562933 87.61249 7.626228 87.09898 6.531997 C 86.8243 5.946686 86.66693 5.592348 86.57028 5.368315 C 86.40923 4.99493 86.4169 4.983538 86.33162 4.868341 C 86.31149 4.861916 86.28925 4.855846 86.26526 4.850126 C 85.90532 4.7643 85.14419 4.758576 84.98846 4.855923 C 84.90966 4.905213 84.81288 5.101454 84.6938 5.368781 C 84.57472 5.63612 84.43332 5.97447 84.26535 6.30795 C 84.01027 6.814344 83.60983 7.754701 83.59302 7.923739 Z M 87.69829 7.32769 C 87.79475 7.577547 87.8584 7.727289 87.98874 7.849277 C 88.01306 7.83436 88.03523 7.817357 88.05797 7.797757 C 88.21709 7.660411 88.4034 7.393324 89.54224 6.794116 C 90.90812 6.075465 91.30867 6.26092 91.30295 6.110478 C 91.3018 6.080217 90.81706 5.846653 89.67135 5.244138 C 88.82079 4.796812 87.91812 4.342297 87.70967 4.259787 C 87.19388 4.282098 86.59888 4.771498 86.57586 4.83112 C 86.56506 4.859047 87.08817 5.960417 87.21088 6.205449 C 87.4725 6.727884 87.60181 7.077835 87.69829 7.32769 Z M 89.54477 11.0745 C 89.71571 10.95041 90.00009 10.42557 91.74519 9.460002 C 93.70221 8.377191 94.83435 8.316893 95.23923 8.137805 C 95.23532 8.135147 95.24638 8.130364 95.22897 8.12136 L 91.58145 6.235273 C 90.93765 6.387653 89.22633 6.917945 88.0934 8.035565 C 88.0934 8.098598 88.08717 8.12312 88.08673 8.144753 C 88.086 8.180798 88.10133 8.208857 88.1884 8.393725 C 88.28511 8.599122 88.53484 9.120904 88.63138 9.326332 C 89.39323 10.94745 89.29132 11.05466 89.42796 11.09686 C 89.47191 11.11043 89.50531 11.10313 89.54477 11.0745 Z M 89.55859 11.38909 C 89.59493 11.48005 90.31143 13.05663 90.71248 13.88023 C 90.84617 14.15477 90.94482 14.34566 90.9715 14.36998 C 91.27389 14.15467 92.2448 12.93025 94.76704 11.69149 C 97.35506 10.42049 98.83051 10.33252 99.13322 10.15148 C 99.12957 10.14894 99.13484 10.13947 99.10889 10.12612 L 95.51535 8.275657 C 95.43545 8.287102 95.35503 8.300264 95.27415 8.315046 C 92.76716 8.773164 89.83183 10.78429 89.55859 11.38909 Z M 91.7434 5.858562 C 91.7433 5.938688 91.74749 6.01861 91.75648 6.098078 C 91.82018 6.144399 95.17474 7.885439 95.4196 7.961174 C 95.46106 7.774638 95.39214 7.323602 95.59145 6.538269 C 95.68204 6.181298 95.82802 5.75524 96.065 5.253539 C 96.78063 3.738537 97.40256 3.473232 97.55787 3.218205 L 97.57158 3.189782 L 93.08885 3.189749 L 93.0033 3.261995 C 92.93042 3.327764 92.85271 3.406274 92.773 3.495607 C 92.29478 4.031606 91.74475 4.95715 91.7434 5.858562 Z M 85.10616 3.189696 L 83.35899 3.189677 L 83.39302 3.263341 C 83.43951 3.363968 83.52866 3.558601 83.69747 3.936859 L 83.7003 3.938914 C 83.72861 3.927755 84.77434 3.409918 85.09328 3.198843 L 85.10616 3.189696 Z M 91.54602 5.567755 C 91.5656 5.35049 91.63551 5.015225 91.86173 4.501628 C 92.25337 3.612424 92.64633 3.340899 92.73862 3.213253 L 92.75238 3.189744 L 88.25922 3.189712 L 88.20796 3.232547 C 88.07135 3.358434 87.87727 3.6049 87.77943 4.048629 C 87.85406 4.092578 89.68143 5.048991 89.7224 5.066767 C 90.3503 5.339106 91.04708 5.768288 91.35204 5.905877 C 91.42239 5.937627 91.47191 5.95385 91.49487 5.94903 C 91.57886 5.931424 91.52083 5.847129 91.54602 5.567755 Z M 103.3949 9.930814 C 103.4433 9.677909 103.5059 9.395917 103.5864 9.081874 C 103.6952 8.657684 103.9567 7.487258 105.1153 5.673534 C 106.2777 3.853787 106.9523 3.574 107.209 3.22761 L 107.2335 3.189854 L 102.7512 3.189816 L 102.6291 3.286356 C 102.5693 3.335756 102.5098 3.386994 102.4508 3.43999 C 100.8456 4.880678 99.54019 7.611276 99.51819 9.548815 C 99.5159 9.749266 99.52736 9.941187 99.55364 10.12234 C 99.75999 10.25969 99.36897 10.0322 101.8067 11.31033 C 101.94 11.38018 102.8803 11.86072 102.9254 11.88319 C 103.1778 12.00889 103.1945 11.99516 103.2168 11.98547 C 103.2999 11.94924 103.1997 11.69641 103.2528 10.96668 C 103.2727 10.69303 103.3141 10.35232 103.3949 9.930814 Z M 76.04784 8.15559 C 76.04672 8.160083 76.04714 8.164086 76.04895 8.167696 C 76.14686 8.364077 76.46838 7.911042 79.18868 9.252885 C 81.09289 10.19217 81.64345 11.08648 81.78514 11.09088 C 81.90988 11.09472 81.9457 10.95424 82.05424 10.6453 C 82.11939 10.45992 82.21071 10.21395 82.36311 9.90208 C 82.48643 9.649699 83.11539 8.426483 83.19183 8.08521 C 82.45728 7.137077 80.2851 6.32984 79.70318 6.234477 C 79.61916 6.27122 79.06822 6.573067 77.69652 7.267019 C 76.4295 7.908008 76.06474 8.087995 76.04784 8.15559 Z M 79.62796 4.979493 C 79.72745 5.318007 79.7225 5.514277 79.71991 5.658124 C 79.71939 5.686894 79.71895 5.713584 79.71949 5.738891 C 79.72107 5.814794 79.73122 5.87831 79.77296 5.948858 C 79.85555 5.922541 83.13281 4.255624 83.48838 4.048592 C 83.47433 3.851771 83.40034 3.658002 83.27984 3.482455 C 83.20956 3.380066 83.12346 3.283863 83.02415 3.19687 L 83.01526 3.189674 L 78.54077 3.18964 L 78.54106 3.190091 C 78.68401 3.382721 79.15903 3.780186 79.48969 4.590249 C 79.55002 4.738016 79.59479 4.866656 79.62796 4.979493 Z M 83.21417 7.78572 C 83.26141 7.831605 83.29123 7.85461 83.32043 7.851447 C 83.40074 7.842761 83.38218 7.704272 83.97133 6.388458 C 84.18917 5.901948 84.6337 5.193528 84.65802 4.825484 C 84.65963 4.80095 84.65939 4.777915 84.65709 4.756573 C 84.32304 4.511284 84.10013 4.39312 83.84575 4.304659 C 83.76095 4.275189 83.67267 4.248984 83.57557 4.222491 C 83.50813 4.255756 83.59158 4.210702 83.27324 4.378618 C 83.1469 4.44527 82.48032 4.798824 82.37198 4.855906 C 80.20995 5.994912 80.07472 5.971704 79.98227 6.135139 C 80.22916 6.256826 80.57285 6.186191 81.86612 6.843153 C 82.77417 7.304426 83.07248 7.648056 83.21417 7.78572 Z M 82.07542 11.20267 C 82.33941 11.12159 85.22066 10.34629 89.19231 11.20278 C 89.15432 10.92751 88.38641 9.364965 88.23465 9.01447 C 87.79831 8.006719 88.05753 8.063875 86.34367 7.886027 C 85.1491 7.762068 83.89345 8.005833 83.568 8.086841 C 83.52151 8.098412 83.494 8.106661 83.48836 8.110045 C 83.26703 8.242894 83.29945 8.579977 82.8018 9.551024 C 82.48581 10.16761 82.10959 11.03043 82.07542 11.20267 Z M 102.4054 3.189814 L 97.88005 3.189787 L 97.84152 3.220663 C 97.79488 3.262018 97.73982 3.317728 97.67943 3.383145 C 97.31729 3.775634 96.76492 4.517756 96.69785 4.609475 C 95.85413 5.763455 95.62569 7.360486 95.6192 7.932209 C 95.61829 8.013905 95.62193 8.074652 95.62892 8.110195 C 95.69463 8.154867 99.05162 9.889586 99.29196 9.973327 C 99.46171 9.748679 99.28868 9.186964 99.51701 8.095366 C 99.62082 7.599179 99.80754 6.993515 100.147 6.260251 C 101.0202 4.374349 102.1431 3.531291 102.3881 3.213849 L 102.4054 3.189814 Z M 90.70532 14.42762 C 90.70544 14.42499 90.70435 14.42075 90.70108 14.41362 L 89.35604 11.46608 C 89.27201 11.39639 89.3588 11.46699 89.26205 11.38909 C 86.11784 10.47086 82.12617 11.24552 81.94163 11.41867 L 81.93355 11.42973 L 80.55644 14.44401 C 80.55385 14.44975 80.55302 14.45337 80.55319 14.45578 C 80.5538 14.46302 80.56358 14.45935 80.56134 14.46908 C 80.8689 14.46019 82.35059 13.88535 85.63382 13.88547 C 89.1125 13.88558 90.28873 14.46916 90.69667 14.44426 C 90.69371 14.42918 90.70498 14.43554 90.70532 14.42762 Z M 85.02846 4.161196 C 85.17727 3.854092 85.33191 3.474913 85.35481 3.328263 C 85.33125 3.338641 85.29178 3.357333 85.24049 3.38226 C 84.88147 3.556822 83.94468 4.036832 83.85466 4.105037 C 83.87132 4.116516 83.76693 4.05093 84.79659 4.570271 C 84.85196 4.503735 84.93916 4.345457 85.02846 4.161196 Z M 85.05344 4.65426 L 85.05823 4.655063 C 85.26859 4.654828 85.38547 4.654694 86.22699 4.653722 C 86.13071 4.311793 85.94014 3.907526 85.80225 3.651934 C 85.71954 3.498577 85.65576 3.398727 85.64267 3.398016 C 85.61647 3.396594 85.53107 3.550608 85.43305 3.75203 C 85.26971 4.087736 85.0713 4.555153 85.05344 4.65426 Z M 71.80347 10.3108 C 71.73549 10.33962 71.57956 10.42591 71.02493 10.71273 C 71.00493 10.72308 70.04217 11.21708 70.02209 11.22734 C 69.8898 11.2949 69.20807 11.6407 69.07578 11.70823 C 68.38585 12.06036 68.34738 12.06913 68.25586 12.19321 C 68.97102 12.44865 71.55608 12.84139 74.22199 14.31129 C 74.82861 14.64578 76.22466 15.40375 76.88048 15.9305 C 78.41061 17.15948 78.65311 17.52924 78.75407 17.6233 C 78.77737 17.645 78.79314 17.65201 78.81544 17.65152 C 78.89197 17.64985 78.85654 17.60077 79.4617 16.2797 C 79.87462 15.37825 80.15515 14.88571 80.20898 14.6058 C 79.41547 13.59651 77.12674 12.17031 76.18672 11.73036 C 75.14012 11.24052 72.31761 10.2278 71.85366 10.29582 C 71.83902 10.29797 71.82614 10.30119 71.80347 10.3108 Z" fill-rule="evenodd" fill="#780606" fill-opacity="1" stroke="#780606" stroke-opacity="1" stroke-width="0.3527778" stroke-linecap="round" stroke-linejoin="round"/>
<path id="path_3fbc4ed4e4e1ee2416b475b1af4575e1" d="M -0.0138702 2.738719 L -0.0138714 3.316307 L 171.2999 3.316255 L 171.2999 2.738668 L -0.0138702 2.738719 Z" fill-rule="evenodd" fill="#780606" fill-opacity="1" stroke="#780606" stroke-opacity="1" stroke-width="0" stroke-linecap="round" stroke-linejoin="round"/>
</defs>
<g>
<g>
<g>
<g>
<use xlink:href="#path_eb4b17a602b816c568a7c29669aa99b9"/>
</g>
</g>
</g>
<g>
<use xlink:href="#path_3fbc4ed4e4e1ee2416b475b1af4575e1"/>
</g>
</g>
</svg>