<?xml version="1.0" encoding="utf-8"?>
<!DOCTYPE svg PUBLIC "-//W3C//DTD SVG 1.1//EN" "http://www.w3.org/Graphics/SVG/1.1/DTD/svg11.dtd">
<!-- exported from Silhouette Studio® Business Edition V4.5.152ssbe -->
<svg version="1.1" xmlns="http://www.w3.org/2000/svg" xmlns:xlink="http://www.w3.org/1999/xlink" width="171.1706mm" height="25mm" viewBox="0 0 171.1706 25">
<defs>
<path id="path_c8690f911a0ba75c0760148107251a39" d="M 41.01779 0.9278297 C 40.89893 0.8546323 40.79276 0.7910165 40.70109 0.7371712 L 40.5318 0.6401138 L -0.1188202 0.6399155 L -0.1188354 0.3393478 L 171.0587 0.3401985 L 171.0587 0.6407661 L 130.4144 0.640564 L 130.319 0.6905556 C 129.0284 1.39085 125.9134 3.762195 124.2623 5.954056 C 122.2856 8.578053 121.6325 12.05443 121.9621 12.88056 C 121.996 12.89408 121.8068 12.8405 123.7244 13.51189 C 123.7642 13.52583 125.6769 14.19256 125.7169 14.20633 C 128.1006 15.02646 129.2919 15.32746 129.0792 15.5135 C 128.7217 15.8263 122.5759 13.23462 121.533 13.11852 C 117.7552 13.62281 112.9428 14.82517 110.9977 15.44671 C 110.7427 15.52822 108.916 16.11288 108.8739 16.12674 C 104.9498 17.41654 100.2892 20.18665 99.61206 20.74957 C 100.0265 21.90996 102.8034 24.58125 101.9043 24.79707 C 101.7565 24.71862 101.457 24.30139 100.0769 22.24526 C 99.73704 21.73904 100.0554 22.21043 99.71887 21.66529 C 99.36802 21.09699 99.36804 21.09697 99.36081 21.08539 C 99.21095 20.84583 99.24816 20.91169 99.21866 20.86853 C 98.06312 20.50216 90.98415 19.66223 85.8091 19.6605 C 81.51121 19.65906 72.08925 20.38398 71.70302 20.93248 L 70.32473 22.89085 C 69.35741 24.26522 69.28807 24.8542 68.83763 24.77197 C 68.52215 24.71436 68.98877 24.12644 69.96693 22.72083 L 71.1842 20.97158 C 71.37629 20.69553 71.31982 20.73096 71.3258 20.71532 C 70.9082 20.50313 68.77898 19.18752 68.21467 18.77772 C 67.38972 18.63334 66.31661 17.45212 59.6347 15.35565 C 56.99725 14.52814 51.6272 13.36342 49.6253 13.15155 C 49.41821 13.12964 49.24715 13.11791 49.11893 13.11781 C 49.05408 13.13895 49.151 13.10307 48.76164 13.23746 C 48.32011 13.38992 47.03853 13.83566 46.75877 13.9336 C 46.72165 13.94659 45.27682 14.45601 44.9067 14.58688 C 42.92616 15.28717 41.9985 15.62931 41.81778 15.4741 C 41.66028 15.33879 42.40688 15.14982 44.90405 14.29058 C 45.37045 14.13009 46.49043 13.73689 46.84017 13.61647 C 49.02366 12.86477 49.53071 13.25983 48.67709 10.01177 C 47.43317 5.278431 42.80063 2.025804 41.01779 0.9278297 Z M 51.11181 0.6401672 L 51.11273 0.6467056 C 51.17047 0.7622076 51.83704 0.8912392 54.35801 3.225552 C 55.4745 4.259387 56.3786 5.689835 56.75499 6.703884 C 57.69385 9.23322 57.28712 9.705463 57.2711 9.851963 C 57.2674 9.885769 57.28451 9.902225 57.34373 9.922619 C 57.38048 9.935261 57.49896 9.911402 57.66071 9.866898 C 58.146 9.733453 59.02034 9.414518 59.24182 9.3395 C 59.72124 9.177171 61.12209 8.70571 61.24162 8.664936 C 62.83217 8.122046 64.55781 7.510693 64.96067 7.322311 C 65.45158 5.066323 62.72969 2.142633 60.89093 0.9425583 C 60.75961 0.8568408 60.63278 0.7799045 60.51196 0.7126389 L 60.37523 0.6402245 L 51.11181 0.6401672 Z M 50.98325 0.9456749 C 50.81419 0.8308967 50.66735 0.7370998 50.54938 0.6678543 L 50.4985 0.6401634 L 41.15203 0.6401215 L 41.15355 0.6527328 C 41.23079 0.7815635 42.17241 0.8712611 44.32732 2.938595 C 44.51421 3.117883 46.42539 4.691422 47.23809 5.979492 C 48.30812 7.675371 48.84123 8.943495 49.10286 9.908524 C 49.43924 11.14927 49.32674 11.88905 49.32936 12.39284 C 49.33004 12.52079 49.33816 12.6335 49.36291 12.73537 C 49.36968 12.73348 49.36942 12.74434 49.41021 12.73027 L 56.92971 10.13641 L 56.95847 10.11651 C 57.0225 10.06404 57.05071 9.938404 57.04971 9.759167 C 57.04437 8.79121 56.18692 6.259028 55.51491 5.230328 C 54.43779 3.581503 52.16656 1.749152 50.98325 0.9456749 Z M 57.72342 10.1776 C 58.96177 10.40699 61.50576 10.62354 66.32953 12.11755 C 70.20305 13.31716 72.72568 14.86541 73.00658 14.97058 C 73.11033 15.18588 74.25386 15.72778 74.27541 15.74471 C 74.31191 15.77342 74.33015 15.79994 74.34063 15.82355 C 74.37209 15.89437 74.33366 15.93918 74.50853 15.9394 C 74.7477 15.93969 74.54985 15.99031 75.92024 14.04477 C 76.64491 13.01599 77.29221 12.07159 77.40511 11.7924 C 76.88861 11.29217 74.13824 9.937691 72.442 9.322552 C 70.50301 8.61939 65.76047 7.517251 65.29388 7.566093 L 65.26346 7.571213 L 57.74891 10.16178 C 57.71429 10.17371 57.74194 10.17039 57.72342 10.1776 Z M 65.01763 5.074013 C 65.04079 5.136063 65.06219 5.197384 65.08208 5.257832 C 65.34727 6.064204 65.33464 6.726207 65.38974 7.169327 C 65.4527 7.157818 65.48923 7.159315 65.70049 7.099514 C 66.05257 6.999828 66.89012 6.729903 69.14475 5.945724 L 72.26302 4.861092 C 72.83409 4.662462 72.71616 4.703749 72.90723 4.616039 C 72.99239 4.502309 73.0299 4.357971 73.02779 4.191803 C 73.01637 3.294487 71.84942 1.760569 70.78828 0.9736176 C 70.60689 0.8390944 70.4286 0.7264038 70.2597 0.6424408 L 70.25503 0.6402664 L 60.96618 0.640213 L 60.96736 0.6731033 C 61.03928 0.8811576 62.07006 0.8191333 64.23023 3.666565 C 64.60973 4.166774 64.85552 4.639502 65.01763 5.074013 Z M 85.98759 0.8469505 C 86.00683 0.8812639 87.04871 2.522884 87.11217 2.5382 C 87.28387 2.579656 87.37853 2.440483 87.80798 2.277767 C 88.47316 2.025671 89.13552 1.961823 89.13449 1.883732 C 89.1339 1.838642 88.61277 1.712304 87.30259 1.248337 C 86.67336 1.025507 86.40517 0.9300321 86.26402 0.887867 C 86.12287 0.8457171 86.10875 0.8568126 85.98759 0.8469505 Z M 96.50099 16.29658 C 96.49545 16.341 96.76814 16.62609 98.00282 18.38708 C 98.01698 18.40727 98.59396 19.32547 98.64656 19.40688 C 98.7369 19.5468 98.81359 19.66299 98.87889 19.75985 C 99.3358 20.43772 99.23064 20.16599 99.29021 20.42664 C 99.38175 20.40731 99.47562 20.37389 99.57677 20.32704 C 100.5544 19.87418 102.208 18.1677 108.9331 15.83231 C 111.8941 14.804 113.4418 14.4761 115.4839 14.00658 C 120.6996 12.80742 120.9995 13.14273 121.0845 12.96608 C 121.1573 12.81487 120.2037 12.65553 117.9526 11.84709 C 114.5201 10.61438 114.3793 10.52799 113.7373 10.36506 C 113.6017 10.36511 113.4495 10.37247 113.2828 10.38626 C 110.7836 10.59315 105.0532 12.25498 103.8766 12.66239 C 101.3298 13.54431 96.53994 15.98391 96.50099 16.29658 Z M 96.42438 16.84651 C 96.21594 16.5167 96.17512 16.44182 96.10754 16.39853 C 95.5563 16.04535 89.39024 15.45222 85.17764 15.45671 C 81.52509 15.46061 76.10292 16.02547 74.96371 16.35892 C 74.84585 16.39342 74.77376 16.42544 74.75427 16.4541 L 71.99049 20.52062 C 71.98715 20.52553 71.98827 20.52924 71.99016 20.53175 C 71.99203 20.53427 71.99468 20.5356 71.99461 20.53575 C 72.40106 20.50949 81.54019 18.75792 92.42425 19.76379 C 92.48008 19.76895 95.10633 20.00645 95.21795 20.01704 C 96.16599 20.10704 98.12984 20.50876 98.79752 20.51152 C 98.87771 20.25953 98.82929 20.46129 97.50217 18.48909 C 97.48579 18.46475 96.80727 17.44055 96.69586 17.2696 C 96.58194 17.09474 96.49388 16.95647 96.42438 16.84651 Z M 89.16383 1.574406 C 89.34362 1.629518 89.46378 1.660072 89.4882 1.652859 C 89.61853 1.61429 89.63 1.367628 89.79583 1.076824 C 89.81952 1.035294 89.84643 0.9928357 89.87717 0.9499702 C 90.07188 0.6789225 90.21003 0.7025374 90.22383 0.6480179 L 90.22334 0.6403656 L 86.58437 0.6403465 L 86.7596 0.7137718 C 87.36517 0.956949 88.57949 1.395335 89.16383 1.574406 Z M 81.26725 7.118492 C 82.07033 7.079135 83.02053 6.793173 85.7096 6.814651 C 88.09178 6.833697 89.08054 7.098761 89.63512 7.118568 C 89.67458 7.016522 89.757 7.082889 89.46789 6.653694 C 89.4484 6.62476 89.50746 6.711374 88.45473 5.214008 C 87.8916 4.413058 87.56898 3.928175 87.37086 3.621605 C 87.04068 3.110658 87.05642 3.095068 86.88158 2.937431 C 86.84032 2.928638 86.79473 2.920334 86.74555 2.912506 C 86.00765 2.79506 84.44726 2.787227 84.12801 2.920437 C 83.96648 2.987887 83.76807 3.256426 83.52393 3.622242 C 83.2798 3.988073 82.98992 4.451076 82.64558 4.907417 C 82.12263 5.600375 81.30171 6.887177 81.26725 7.118492 Z M 89.68336 6.302849 C 89.88112 6.644758 90.01159 6.849668 90.27878 7.016598 C 90.32865 6.996186 90.37411 6.972919 90.42072 6.946098 C 90.74693 6.758151 91.12888 6.392664 93.46358 5.572697 C 96.26373 4.589282 97.08491 4.843063 97.07317 4.637196 C 97.0708 4.595787 96.07706 4.276171 93.72826 3.451679 C 91.98454 2.83955 90.13401 2.217583 89.70668 2.104675 C 88.64926 2.135206 87.42949 2.804909 87.38229 2.886497 C 87.36016 2.924713 88.43259 4.431848 88.68414 4.767155 C 89.22047 5.482064 89.48557 5.960943 89.68336 6.302849 Z M 93.46876 11.43005 C 93.81921 11.26025 94.40222 10.54204 97.9798 9.220745 C 101.9918 7.739008 104.3128 7.656494 105.1428 7.411427 C 105.1348 7.407791 105.1575 7.401246 105.1218 7.388924 L 97.64412 4.807968 C 96.32427 5.016487 92.81596 5.742147 90.49335 7.271519 C 90.49335 7.357773 90.48058 7.391331 90.47969 7.420933 C 90.47817 7.470257 90.50963 7.508654 90.6881 7.761631 C 90.88637 8.0427 91.39832 8.756716 91.59624 9.037827 C 93.1581 11.2562 92.94919 11.4029 93.22932 11.46065 C 93.31938 11.47922 93.38788 11.46923 93.46876 11.43005 Z M 93.49712 11.86054 C 93.57162 11.98502 95.04049 14.14243 95.86266 15.26946 C 96.13673 15.64515 96.33898 15.90637 96.39369 15.93964 C 97.01359 15.64501 99.00403 13.9695 104.1748 12.27436 C 109.4804 10.53509 112.5052 10.41472 113.1258 10.16698 C 113.1183 10.16351 113.1291 10.15055 113.0759 10.13227 L 105.7089 7.600067 C 105.5451 7.615729 105.3802 7.633741 105.2144 7.653969 C 100.0749 8.280864 94.05727 11.03293 93.49712 11.86054 Z M 97.97614 4.292469 C 97.9759 4.402115 97.9845 4.511482 98.00294 4.620228 C 98.13353 4.683614 105.0106 7.066085 105.5126 7.169724 C 105.5976 6.914464 105.4563 6.29726 105.8649 5.222595 C 106.0506 4.73411 106.3499 4.151084 106.8357 3.464546 C 108.3028 1.39139 109.5778 1.028344 109.8962 0.6793594 L 109.9243 0.6404648 L 100.7344 0.640419 L 100.559 0.7392807 C 100.4096 0.8292795 100.2503 0.9367157 100.0869 1.05896 C 99.10651 1.79243 97.97887 3.05896 97.97614 4.292469 Z M 84.36928 0.6403427 L 80.78747 0.640316 L 80.85725 0.7411194 C 80.95257 0.8788193 81.13532 1.145158 81.48139 1.662773 L 81.4872 1.665585 C 81.54525 1.650315 83.68905 0.9416978 84.34292 0.6528587 L 84.36928 0.6403427 Z M 97.57146 3.894524 C 97.61161 3.597214 97.75493 3.138431 98.2187 2.435616 C 99.0216 1.218814 99.8272 0.847254 100.0164 0.6725807 L 100.0446 0.6404114 L 90.83331 0.6403656 L 90.7282 0.6989822 C 90.44815 0.8712476 90.05027 1.208517 89.84969 1.815723 C 90.0027 1.875864 93.74892 3.184638 93.83295 3.208961 C 95.12019 3.581635 96.54863 4.168936 97.1738 4.357216 C 97.31804 4.400663 97.41953 4.422863 97.46661 4.416267 C 97.63879 4.392175 97.51983 4.276824 97.57146 3.894524 Z M 121.8625 9.865017 C 121.9617 9.518937 122.09 9.133055 122.2552 8.703312 C 122.4782 8.122843 123.0143 6.521211 125.3894 4.03928 C 127.7724 1.549105 129.1555 1.16624 129.6817 0.692234 L 129.7319 0.6405678 L 120.543 0.6405144 L 120.2925 0.7726212 C 120.1699 0.8402203 120.0481 0.9103366 119.927 0.9828568 C 116.6364 2.954319 113.9601 6.690918 113.915 9.342281 C 113.9103 9.616581 113.9338 9.87921 113.9877 10.12711 C 114.4107 10.31506 113.6091 10.00376 118.6067 11.75277 C 118.8799 11.84835 120.8075 12.50594 120.9 12.53669 C 121.4174 12.70869 121.4516 12.68991 121.4973 12.67664 C 121.6677 12.62707 121.4624 12.2811 121.5712 11.28252 C 121.612 10.90805 121.697 10.44182 121.8625 9.865017 Z M 65.79908 7.435757 C 65.79681 7.441906 65.79768 7.447384 65.80136 7.452324 C 66.0021 7.721052 66.66124 7.101115 72.23805 8.937317 C 76.14182 10.22265 77.27048 11.44645 77.56097 11.45246 C 77.81671 11.45772 77.89015 11.26548 78.11266 10.84273 C 78.24623 10.58905 78.43342 10.25245 78.74585 9.825687 C 78.99868 9.480326 80.28809 7.806456 80.44479 7.339451 C 78.9389 6.042009 74.48579 4.93737 73.29281 4.806873 C 73.12057 4.857153 71.9911 5.270205 69.17899 6.219822 C 66.58154 7.096961 65.83375 7.343258 65.79908 7.435757 Z M 73.13858 3.089531 C 73.34254 3.552759 73.33241 3.821339 73.3271 4.018181 C 73.32603 4.057552 73.32513 4.094074 73.32623 4.128704 C 73.32948 4.232571 73.35028 4.319488 73.43588 4.416027 C 73.60515 4.380014 80.32381 2.098977 81.05274 1.81567 C 81.02393 1.546337 80.87225 1.28118 80.62523 1.040958 C 80.48113 0.9008471 80.30463 0.7692012 80.10105 0.6501579 L 80.08281 0.6403122 L 70.90977 0.6402626 L 70.91039 0.6408806 C 71.20343 0.9044788 72.17726 1.448377 72.85513 2.556881 C 72.97881 2.759088 73.07059 2.935123 73.13858 3.089531 Z M 80.4906 6.929623 C 80.58743 6.992414 80.64857 7.023895 80.70845 7.019566 C 80.87307 7.00768 80.83503 6.818169 82.04282 5.017586 C 82.48941 4.351837 83.40071 3.382423 83.45057 2.878784 C 83.4539 2.845211 83.45338 2.81369 83.44868 2.784485 C 82.76385 2.448827 82.30687 2.287129 81.78535 2.166077 C 81.61151 2.12575 81.43054 2.089891 81.2315 2.053638 C 81.09323 2.099158 81.2643 2.037504 80.61169 2.267284 C 80.35268 2.358491 78.98613 2.842302 78.76403 2.920414 C 74.33172 4.479048 74.0545 4.44729 73.86494 4.670937 C 74.37112 4.837457 75.07568 4.740798 77.72698 5.639797 C 79.58855 6.271013 80.2001 6.741242 80.4906 6.929623 Z M 78.15607 11.60544 C 78.69726 11.49449 84.60403 10.43355 92.74619 11.60559 C 92.66832 11.22891 91.09407 9.090693 90.78294 8.611069 C 89.8884 7.232044 90.41982 7.310258 86.90628 7.066887 C 84.45734 6.897259 81.88315 7.23083 81.21597 7.341682 C 81.12067 7.357516 81.06425 7.368805 81.05268 7.373436 C 80.59896 7.555229 80.66542 8.0165 79.64519 9.345299 C 78.9974 10.18904 78.22612 11.36974 78.15607 11.60544 Z M 119.8339 0.6405106 L 110.5567 0.6404724 L 110.4777 0.682724 C 110.3821 0.7393141 110.2692 0.8155491 110.1454 0.9050674 C 109.403 1.442155 108.2706 2.457689 108.1331 2.583199 C 106.4034 4.162326 105.9351 6.347733 105.9218 7.130089 C 105.9199 7.241882 105.9274 7.325008 105.9417 7.373646 C 106.0764 7.434778 112.9585 9.8086 113.4512 9.923191 C 113.7992 9.615779 113.4445 8.847118 113.9126 7.353355 C 114.1254 6.674364 114.5082 5.845563 115.2041 4.842152 C 116.9942 2.261449 119.2962 1.107795 119.7985 0.6734009 L 119.8339 0.6405106 Z M 95.84798 16.01852 C 95.84823 16.01492 95.84598 16.00912 95.83929 15.99936 L 93.08188 11.9659 C 92.90961 11.87053 93.08752 11.96715 92.88919 11.86054 C 86.44334 10.60402 78.26012 11.66407 77.88177 11.90102 L 77.8652 11.91615 L 75.04206 16.04094 C 75.03672 16.0488 75.03504 16.05375 75.0354 16.05705 C 75.03663 16.06696 75.05668 16.06194 75.05208 16.07526 C 75.68262 16.06309 78.72016 15.27647 85.45104 15.27663 C 92.5826 15.27679 94.99395 16.07537 95.83025 16.04129 C 95.82417 16.02066 95.84729 16.02936 95.84798 16.01852 Z M 84.20999 1.969761 C 84.51507 1.549514 84.83211 1.030639 84.87904 0.8299599 C 84.83074 0.8441616 84.74982 0.8697405 84.64468 0.9038506 C 83.90867 1.142724 81.9882 1.799577 81.80364 1.89291 C 81.83778 1.908619 81.62379 1.81887 83.73467 2.529545 C 83.84816 2.438497 84.02693 2.221907 84.20999 1.969761 Z M 84.26122 2.644478 L 84.27103 2.645576 C 84.70228 2.645256 84.9419 2.645072 86.66708 2.643742 C 86.4697 2.17584 86.07902 1.622634 85.79634 1.272877 C 85.62678 1.063021 85.49603 0.9263842 85.46919 0.9254112 C 85.41547 0.9234653 85.24039 1.134222 85.03947 1.409851 C 84.70461 1.869237 84.29785 2.508858 84.26122 2.644478 Z M 57.09785 10.38499 C 56.95848 10.42442 56.63881 10.5425 55.50177 10.93499 C 55.46076 10.94915 53.48705 11.62516 53.44588 11.6392 C 53.17468 11.73164 51.77709 12.20484 51.50587 12.29725 C 50.09147 12.77911 50.01259 12.79112 49.82497 12.96091 C 51.2911 13.31045 56.59066 13.84789 62.05598 15.85933 C 63.29959 16.31705 66.16159 17.35427 67.50607 18.07508 C 70.64296 19.75685 71.14011 20.26283 71.34706 20.39155 C 71.39482 20.42124 71.42715 20.43083 71.47289 20.43016 C 71.62975 20.42787 71.55713 20.36071 72.79774 18.55293 C 73.64427 17.31937 74.21938 16.64538 74.32973 16.26234 C 72.70296 14.88121 68.01091 12.92957 66.0838 12.32753 C 63.93821 11.65723 58.15186 10.27141 57.20074 10.36449 C 57.17072 10.36742 57.14432 10.37183 57.09785 10.38499 Z" fill-rule="evenodd" fill="#780606" fill-opacity="1" stroke="#FF0000" stroke-opacity="1" stroke-width="0" stroke-linecap="round" stroke-linejoin="round"/>
</defs>
<g>
<use xlink:href="#path_c8690f911a0ba75c0760148107251a39"/>
</g>
</svg>