<?xml version="1.0" standalone="no"?>
<!DOCTYPE svg PUBLIC "-//W3C//DTD SVG 20010904//EN"
 "http://www.w3.org/TR/2001/REC-SVG-20010904/DTD/svg10.dtd">
<svg version="1.0" xmlns="http://www.w3.org/2000/svg"
 width="1278.000000pt" height="1280.000000pt" viewBox="0 0 1278.000000 1280.000000"
 preserveAspectRatio="xMidYMid meet">
<defs>
<filter id="glowAndShadow" x="-200%" y="-200%" width="400%" height="400%">
  <feGaussianBlur in="SourceAlpha" stdDeviation="80" result="blur" />
  <feFlood flood-color="white" flood-opacity="1" result="flood" />
  <feComposite in="flood" in2="blur" operator="in" result="glow" />
  <feDropShadow dx="20" dy="20" stdDeviation="10" flood-color="black" flood-opacity="0.6" result="shadow" />
  <feMerge>
    <feMergeNode in="glow" />
    <feMergeNode in="shadow" />
    <feMergeNode in="SourceGraphic" />
  </feMerge>
</filter>
</defs>
<g filter="url(#glowAndShadow)" transform="translate(0.000000,1280.000000) scale(0.100000,-0.100000)"
fill="white" stroke="white" stroke-width="50">
<path d="M11315 12791 c-6 -5 -701 -342 -1545 -749 -844 -406 -1830 -882
-2191 -1056 -360 -174 -662 -316 -670 -316 -14 0 -662 810 -675 843 -3 9 211
222 630 626 350 337 636 616 636 621 0 32 -36 7 -143 -97 -67 -66 -304 -294
-527 -508 -223 -214 -453 -436 -513 -494 -90 -89 -110 -104 -125 -95 -9 6
-225 124 -479 264 -293 160 -463 258 -463 267 0 9 72 156 160 328 88 172 160
318 160 324 0 6 -6 11 -14 11 -8 0 -84 -138 -180 -325 -119 -230 -172 -325
-184 -325 -28 0 -1216 282 -1226 291 -5 4 -2 81 6 181 14 177 14 202 -6 195
-7 -2 -17 -71 -27 -181 -9 -97 -20 -181 -25 -185 -5 -5 -178 -14 -384 -20
-206 -6 -415 -13 -465 -16 -49 -3 -95 -1 -102 3 -7 4 -30 91 -53 192 -39 177
-51 212 -67 197 -7 -7 4 -72 49 -279 16 -76 20 -110 12 -118 -6 -6 -235 -60
-509 -120 -274 -60 -503 -114 -509 -120 -5 -5 -15 -10 -22 -10 -7 0 -97 140
-200 310 -108 179 -193 310 -202 310 -9 0 -13 -7 -10 -17 3 -10 89 -157 191
-326 103 -170 187 -317 187 -326 0 -24 -633 -955 -651 -959 -8 -1 -269 200
-579 448 -311 247 -569 448 -575 447 -5 -2 -10 -8 -10 -14 0 -6 254 -214 565
-463 311 -249 568 -456 571 -462 5 -7 -150 -801 -186 -955 -3 -13 -13 -23 -23
-23 -9 0 -199 65 -422 145 -223 80 -413 145 -422 145 -29 0 -20 -20 16 -35 18
-8 210 -77 426 -154 216 -78 395 -142 397 -145 2 -2 3 -243 3 -537 0 -410 -3
-536 -13 -545 -8 -8 -159 -19 -432 -34 -231 -12 -424 -26 -429 -31 -6 -6 -6
-12 0 -18 5 -5 191 2 433 16 235 13 428 20 433 15 4 -4 22 -123 38 -263 17
-140 39 -324 50 -409 31 -240 46 -207 -132 -283 -84 -35 -301 -126 -483 -202
-181 -76 -336 -144 -344 -151 -49 -45 64 -5 484 171 257 108 474 195 483 193
15 -3 19 -39 33 -283 9 -154 20 -326 23 -381 l6 -101 -539 -404 c-297 -222
-540 -410 -541 -418 0 -8 7 -11 18 -9 9 3 250 179 534 391 284 213 523 387
531 387 8 0 17 -6 20 -12 293 -719 661 -1596 673 -1605 9 -7 14 -18 11 -25 -2
-7 -399 -741 -881 -1632 -482 -890 -876 -1626 -876 -1634 0 -14 2 -14 14 -2 8
8 413 753 901 1655 488 902 890 1643 894 1647 11 12 1624 389 1639 383 12 -4
14 -28 8 -138 -3 -72 -11 -247 -16 -387 -51 -1329 -47 -1250 -72 -1286 -13
-17 -765 -941 -1673 -2053 -907 -1112 -1652 -2029 -1653 -2037 -2 -9 1 -15 6
-13 6 2 755 917 1666 2034 911 1117 1665 2031 1674 2033 10 2 22 16 28 32 8
27 745 788 1558 1608 229 231 263 262 285 257 22 -6 23 -4 18 25 -6 28 12 53
268 360 151 181 287 336 302 344 15 8 153 143 306 300 183 188 286 286 299
286 14 0 18 5 14 16 -3 8 -1 24 5 35 5 11 230 248 500 527 410 424 495 508
522 512 26 4 32 9 32 31 0 19 119 174 464 601 l463 576 2139 1553 c1177 854
2139 1556 2139 1561 0 4 -4 8 -10 8 -5 0 -961 -691 -2124 -1535 -2087 -1515
-2115 -1535 -2153 -1530 -22 4 -274 -22 -592 -59 -305 -36 -562 -66 -572 -66
-9 0 -20 7 -23 16 -4 9 -67 232 -141 496 -129 457 -137 482 -176 530 -22 28
-39 57 -37 65 2 11 2923 1428 4196 2036 107 50 196 98 199 105 7 17 -10 35
-22 23z m-7407 -433 c11 -14 -24 -476 -37 -490 -9 -10 -779 -84 -787 -76 -7 8
-114 496 -114 524 0 21 4 22 163 29 139 5 526 18 708 23 35 1 61 -3 67 -10z
m660 -139 c328 -77 601 -144 606 -149 11 -11 -271 -560 -288 -560 -24 0 -951
321 -964 334 -10 10 -9 57 8 256 20 229 24 260 36 260 2 0 273 -63 602 -141z
m-1643 100 c8 -13 115 -497 115 -521 0 -22 24 -18 -440 -88 -217 -33 -405 -65
-418 -70 -13 -6 -28 -8 -32 -5 -15 9 -260 422 -260 438 0 8 7 20 15 27 12 10
951 224 1002 229 6 1 15 -4 18 -10z m2774 -521 c253 -138 462 -257 465 -264 4
-11 -493 -506 -530 -527 -9 -5 -125 69 -359 230 -190 131 -345 242 -345 247 0
10 267 534 283 554 5 6 13 12 18 12 4 0 215 -113 468 -252z m-3692 -3 c73
-121 133 -223 133 -227 0 -4 -92 -207 -204 -450 -133 -287 -210 -443 -219
-442 -7 1 -123 88 -256 195 -193 154 -242 198 -239 214 4 16 522 790 605 903
14 18 30 31 36 29 6 -2 71 -102 144 -222z m1858 15 c10 -16 -46 -654 -59 -666
-9 -9 -479 -65 -544 -64 -12 0 -25 6 -27 13 -3 6 -36 154 -74 327 -45 203 -66
319 -60 325 10 10 587 71 696 74 34 0 65 -4 68 -9z m524 -169 c255 -88 468
-164 473 -169 12 -12 -278 -582 -295 -582 -19 0 -701 221 -711 230 -7 7 37
602 49 658 3 12 9 22 13 22 5 0 217 -72 471 -159z m-1335 90 c14 -23 146 -655
138 -663 -11 -11 -539 -200 -564 -202 -12 -1 -76 96 -228 347 -115 191 -210
356 -210 366 0 10 6 23 13 29 12 11 743 129 809 131 20 0 39 -3 42 -8z m-667
-564 c155 -257 203 -344 199 -360 -9 -31 -388 -502 -404 -502 -18 0 -422 324
-422 338 0 7 89 205 197 440 137 299 201 427 211 425 8 -2 107 -155 219 -341z
m4150 -100 c174 -219 316 -406 317 -414 1 -11 -115 -72 -389 -204 -214 -104
-397 -189 -405 -189 -16 0 -423 687 -415 700 3 4 126 126 275 270 236 229 272
260 286 249 9 -7 158 -193 331 -412z m-1287 147 c181 -125 331 -232 334 -240
4 -11 -422 -435 -460 -457 -10 -6 -89 45 -259 165 -134 95 -246 178 -249 184
-2 7 3 27 13 45 10 19 75 145 145 282 70 136 132 247 138 247 5 0 158 -102
338 -226z m-1445 -123 c7 -12 -26 -407 -35 -421 -8 -13 -420 -54 -431 -43 -4
4 -27 97 -50 206 -32 148 -40 200 -31 206 7 4 114 18 240 30 125 13 229 25
231 27 9 8 70 4 76 -5z m535 -166 c102 -32 191 -64 199 -71 11 -10 0 -38 -65
-164 -42 -84 -83 -154 -90 -157 -15 -6 -555 115 -567 127 -11 10 22 391 34
406 7 9 50 -1 157 -35 81 -26 230 -74 332 -106z m-2885 -94 c143 -114 245
-201 245 -211 0 -27 -247 -704 -258 -708 -17 -5 -440 149 -446 163 -2 7 0 32
5 56 6 24 48 231 95 459 46 228 86 421 89 428 3 8 10 12 15 10 5 -2 120 -90
255 -197z m1805 -24 c36 -168 41 -201 29 -212 -8 -7 -98 -56 -200 -109 -144
-74 -189 -93 -197 -84 -27 34 -242 400 -242 412 0 8 6 18 13 23 6 4 129 49
272 99 195 69 263 89 271 81 6 -7 30 -101 54 -210z m2557 -222 c106 -181 192
-336 191 -344 -3 -16 -614 -314 -627 -307 -4 3 -59 128 -121 277 l-114 272
224 219 c124 120 231 217 239 215 8 -1 101 -150 208 -332z m-954 58 c119 -85
217 -158 217 -162 0 -15 -268 -271 -283 -271 -20 0 -361 284 -365 304 -3 12
104 227 145 294 17 28 -10 44 286 -165z m-2113 -76 c66 -109 120 -203 120
-210 0 -7 -74 -88 -163 -181 l-162 -169 -160 127 c-88 70 -161 132 -163 137
-2 5 74 107 169 226 189 239 219 275 231 271 4 -2 62 -92 128 -201z m1014 44
c3 -5 -1 -92 -10 -193 -11 -132 -19 -186 -30 -194 -21 -16 -285 -28 -294 -14
-16 27 -84 360 -74 369 10 10 249 37 346 40 31 0 59 -3 62 -8z m336 -56 c134
-30 249 -60 255 -66 7 -7 -13 -56 -65 -155 -41 -80 -79 -148 -83 -151 -15 -9
-411 29 -424 41 -9 8 -8 52 4 191 9 99 20 186 26 193 5 7 17 10 26 8 9 -3 126
-30 261 -61z m2846 -6 c43 -54 47 -64 180 -538 84 -299 132 -487 127 -492 -5
-5 -196 -32 -424 -59 -317 -37 -417 -46 -425 -37 -6 7 -68 161 -139 342 -70
182 -141 356 -158 388 -23 44 -27 61 -19 69 19 19 785 387 801 385 7 -1 33
-27 57 -58z m-4982 -124 c113 -91 206 -171 206 -178 1 -57 -55 -555 -64 -564
-16 -17 -609 196 -614 220 -2 9 49 162 113 339 63 178 118 329 120 336 2 6 11
12 19 12 7 0 106 -74 220 -165z m1350 117 c3 -5 22 -84 42 -177 l37 -169 -22
-17 c-11 -10 -73 -45 -137 -79 -96 -50 -119 -59 -129 -48 -22 24 -175 286
-175 300 0 14 333 196 362 197 9 1 19 -3 22 -7z m1238 -183 c199 -167 208
-175 208 -186 0 -5 -52 -60 -115 -122 -82 -80 -119 -110 -129 -104 -7 4 -70
51 -140 103 -78 59 -125 102 -126 113 0 23 148 307 160 307 5 0 69 -50 142
-111z m682 -175 c59 -140 105 -261 102 -269 -5 -13 -289 -155 -311 -155 -14 0
-210 398 -201 408 49 58 275 272 287 272 12 0 46 -71 123 -256z m-2241 -19
c48 -79 87 -152 87 -161 0 -21 -196 -244 -215 -244 -18 0 -280 212 -280 227 0
15 294 323 308 323 7 0 51 -65 100 -145z m-623 -65 c83 -67 153 -126 156 -133
6 -16 -73 -398 -85 -410 -7 -7 -275 84 -290 98 -6 7 46 542 54 556 4 5 8 9 10
9 2 0 72 -54 155 -120z m3696 59 c32 -52 297 -727 291 -743 -4 -11 -684 -97
-759 -96 -25 0 -29 6 -53 88 -15 48 -53 174 -86 281 -49 160 -58 196 -47 207
12 12 605 302 620 303 4 1 19 -17 34 -40z m-2341 11 c8 -14 -15 -310 -26 -331
-13 -26 -170 -52 -183 -30 -11 17 -77 335 -72 348 7 18 270 30 281 13z m260
-6 c99 -9 185 -20 190 -26 7 -6 -9 -45 -45 -114 l-54 -105 -51 -14 c-148 -42
-267 -67 -276 -58 -11 11 7 274 22 311 10 26 -8 26 214 6z m-544 -189 c19 -88
34 -165 32 -172 -5 -12 -184 -30 -201 -19 -6 3 -38 52 -73 107 -44 73 -60 106
-53 116 12 19 225 133 244 130 11 -2 25 -47 51 -162z m1446 -35 c51 -102 93
-190 93 -195 0 -11 -262 -145 -284 -145 -13 0 -146 267 -146 295 0 18 220 235
235 232 6 -1 51 -85 102 -187z m-530 84 c62 -48 118 -93 125 -101 10 -12 -7
-34 -98 -124 -61 -60 -117 -109 -125 -109 -8 0 -45 48 -83 106 l-70 106 55
104 c29 57 60 104 68 104 8 0 65 -39 128 -86z m-3141 -75 c109 -39 202 -74
206 -78 11 -10 47 -865 37 -877 -10 -13 -460 -40 -478 -30 -12 8 -17 1010 -5
1040 3 9 14 16 24 16 9 0 106 -32 216 -71z m1958 -83 c31 -52 56 -99 56 -104
0 -13 -151 -173 -161 -170 -26 9 -159 123 -159 137 1 17 185 231 199 231 5 0
34 -42 65 -94z m-463 -38 c71 -57 129 -109 129 -117 0 -8 -21 -70 -46 -138
-33 -87 -51 -123 -63 -123 -23 0 -224 71 -239 84 -10 10 -5 47 23 186 41 202
43 210 57 210 5 0 68 -46 139 -102z m1324 32 c6 -10 -105 -234 -128 -257 -14
-15 -154 2 -174 21 -12 11 -8 143 6 164 4 6 67 26 141 45 160 42 147 39 155
27z m1333 -2 c11 -15 162 -508 162 -532 0 -9 -10 -18 -22 -20 -64 -13 -374
-44 -380 -38 -4 4 -23 99 -41 212 -19 113 -38 213 -42 222 -6 15 19 30 145 93
84 41 156 75 160 75 4 0 12 -6 18 -12z m-782 -134 c35 -74 62 -140 58 -145 -3
-6 -60 -37 -127 -70 -94 -46 -123 -57 -134 -48 -13 11 -103 170 -103 182 0 11
216 217 228 217 7 0 42 -61 78 -136z m-2798 20 c163 -58 303 -110 310 -116 7
-6 10 -18 8 -27 -129 -464 -159 -568 -170 -579 -15 -15 -412 -40 -426 -26 -5
5 -16 164 -24 354 -9 190 -18 375 -21 412 -6 68 -2 88 16 88 6 0 144 -48 307
-106z m2370 17 c34 -49 62 -95 62 -103 0 -7 -31 -45 -70 -83 l-70 -69 -65 32
c-39 19 -65 38 -65 47 0 20 129 265 139 265 4 0 35 -40 69 -89z m-466 -51 c-2
-36 -9 -70 -15 -76 -16 -15 -116 -2 -127 16 -11 18 -23 100 -16 107 10 10 79
21 121 20 l40 -2 -3 -65z m-214 41 c13 -8 31 -68 32 -102 0 -11 -20 -24 -56
-38 -31 -11 -60 -21 -64 -21 -15 0 -94 140 -84 150 5 5 38 11 74 13 36 2 70 4
75 5 6 1 16 -2 23 -7z m-184 -83 c64 -102 64 -93 4 -148 -29 -27 -59 -50 -67
-50 -17 0 -121 79 -121 92 0 13 130 158 141 158 5 0 24 -24 43 -52z m1717 16
c20 -25 79 -406 65 -420 -15 -16 -296 -48 -308 -36 -8 8 -42 219 -51 317 -2
15 24 32 133 86 74 37 138 68 141 68 4 1 13 -6 20 -15z m-2046 -60 c39 -30 71
-62 73 -69 3 -13 -54 -134 -80 -169 -14 -17 -17 -17 -91 9 -43 15 -80 31 -83
36 -4 7 12 55 77 227 5 12 14 22 21 22 7 0 45 -25 83 -56z m5490 -26 c0 -16
-859 -1089 -914 -1142 l-31 -30 -92 13 c-51 7 -97 15 -103 17 -14 6 -8 1005 6
1019 9 9 1100 145 1124 140 6 -1 10 -9 10 -17z m-6164 -34 c71 -25 132 -51
137 -58 12 -15 -44 -447 -60 -462 -18 -17 -358 -35 -374 -20 -9 8 8 82 66 288
77 271 85 298 97 298 3 0 63 -21 134 -46z m1977 19 c40 -59 80 -140 74 -150
-10 -15 -108 -63 -130 -63 -17 0 -102 88 -102 107 0 9 122 133 132 133 3 0 15
-12 26 -27z m-597 1 c13 -8 11 -58 -3 -72 -16 -16 -73 -15 -85 1 -14 16 -24
73 -15 82 7 7 87 -1 103 -11z m-147 -2 c3 -5 8 -27 12 -48 5 -36 3 -41 -21
-52 -45 -21 -63 -15 -85 29 -12 23 -20 43 -18 45 2 2 19 10 38 18 40 17 66 20
74 8z m329 -18 c31 -6 33 -14 11 -55 -15 -30 -17 -30 -67 -24 -67 9 -87 20
-87 48 0 47 28 53 143 31z m133 -50 c24 -14 47 -30 50 -35 6 -10 -65 -79 -81
-79 -6 0 -25 13 -43 30 l-33 29 21 41 c11 22 25 40 31 40 6 0 30 -12 55 -26z
m693 12 c14 -17 47 -275 38 -298 -6 -16 -76 -30 -161 -32 l-39 -1 -53 100
c-30 55 -54 105 -54 112 0 10 226 129 251 132 4 1 12 -5 18 -13z m-1276 -37
c24 -43 22 -51 -25 -81 l-43 -27 -30 19 c-16 10 -31 25 -33 33 -4 18 85 98
101 91 7 -2 20 -18 30 -35z m-262 -6 c27 -20 49 -42 49 -48 0 -17 -107 -105
-129 -105 -25 0 -71 20 -71 32 0 11 59 128 72 146 16 19 27 15 79 -25z m-539
-30 c57 -20 109 -41 116 -46 9 -7 12 -54 12 -172 0 -118 -3 -165 -12 -173 -19
-15 -289 -27 -297 -13 -5 8 38 398 48 439 2 8 42 -2 133 -35z m4662 21 c14 -5
16 -57 16 -484 0 -442 -1 -479 -18 -500 l-17 -22 -300 52 c-165 28 -303 55
-308 59 -13 13 -217 785 -209 793 4 4 190 30 412 57 223 27 406 49 407 50 1 0
8 -2 17 -5z m-3597 -20 c16 -41 -46 -73 -67 -34 -9 16 -8 25 1 36 16 19 58 18
66 -2z m127 -4 c52 -20 19 -62 -41 -53 -38 6 -56 24 -47 47 7 18 49 21 88 6z
m-239 -30 c0 -21 -5 -25 -30 -25 -33 0 -48 30 -23 46 25 17 53 6 53 -21z m569
-20 c20 -22 36 -44 36 -49 0 -12 -18 -24 -68 -46 l-42 -18 -30 28 c-17 16 -30
36 -30 46 0 19 64 79 84 79 8 0 30 -18 50 -40z m-863 -11 c16 -11 29 -27 29
-35 0 -21 -49 -84 -66 -84 -27 0 -94 32 -94 45 0 12 86 95 97 95 3 0 18 -9 34
-21z m645 0 c14 -15 16 -24 8 -37 -16 -25 -47 -26 -62 -2 -29 48 16 81 54 39z
m-441 -6 c4 -12 -2 -25 -20 -40 -31 -27 -38 -28 -61 -6 -15 16 -15 18 10 40
32 27 61 30 71 6z m-603 -23 c37 -13 69 -28 71 -34 7 -18 -29 -246 -40 -257
-5 -5 -37 -9 -69 -7 l-59 3 -3 150 c-3 156 0 180 21 173 6 -3 42 -15 79 -28z
m1565 -65 c32 -62 44 -98 38 -104 -11 -11 -153 -31 -172 -24 -7 3 -22 35 -34
71 -12 37 -24 72 -26 79 -5 13 100 72 129 73 11 0 32 -31 65 -95z m-772 40 c0
-16 -6 -30 -13 -33 -17 -5 -33 39 -19 56 16 20 32 8 32 -23z m100 25 c25 -9
25 -11 10 -40 -11 -21 -23 -30 -40 -30 -24 0 -29 8 -26 40 5 42 13 47 56 30z
m2629 2 c6 -10 206 -750 206 -763 0 -5 -12 -9 -27 -9 -40 0 -915 149 -933 159
-8 5 -14 18 -12 30 3 20 -23 365 -33 441 -2 19 -1 41 4 48 5 9 120 27 367 57
386 46 420 49 428 37z m-2806 -35 c2 -15 -1 -27 -6 -27 -17 0 -34 29 -28 46 9
23 31 11 34 -19z m-64 -24 c9 -21 -2 -33 -29 -33 -32 0 -41 17 -20 40 18 20
40 17 49 -7z m463 5 c30 -28 29 -46 -2 -60 -21 -9 -28 -8 -45 7 -24 22 -25 33
-3 57 20 23 22 23 50 -4z m-613 -7 c16 -18 16 -20 -6 -46 -20 -23 -27 -25 -51
-16 -32 12 -34 23 -9 56 21 29 43 31 66 6z m480 3 c8 -21 -42 -70 -56 -56 -16
16 10 72 32 72 10 0 21 -7 24 -16z m-816 -6 c8 -8 12 -47 12 -108 0 -109 -6
-120 -62 -120 -44 0 -44 2 -28 110 20 133 19 130 43 130 13 0 28 -5 35 -12z
m1197 -61 c23 -68 16 -87 -28 -87 -28 0 -42 9 -76 45 -22 24 -41 49 -41 55 0
17 102 61 115 50 7 -5 20 -34 30 -63z m-1063 16 c56 -21 61 -32 50 -113 l-7
-55 -55 -6 c-30 -3 -61 -4 -67 -1 -14 4 -19 173 -6 185 10 11 32 8 85 -10z
m2383 7 c3 -6 15 -112 25 -237 21 -259 19 -268 -38 -260 -90 13 -408 69 -415
74 -9 5 2 323 13 363 6 24 12 26 171 46 190 25 235 28 244 14z m-2105 -25 c0
-7 -7 -18 -15 -25 -12 -10 -18 -10 -30 0 -14 12 -14 15 1 31 17 19 44 15 44
-6z m278 -2 c-5 -25 -28 -28 -28 -4 0 12 6 21 16 21 9 0 14 -7 12 -17z m179 1
c7 -19 -21 -44 -49 -44 -22 0 -23 18 -1 42 20 22 42 23 50 2z m-339 -13 c3 -8
-1 -12 -9 -9 -7 2 -15 10 -17 17 -3 8 1 12 9 9 7 -2 15 -10 17 -17z m516 -24
c32 -42 32 -53 4 -61 -53 -14 -77 -7 -94 26 -16 31 -16 32 6 50 33 26 56 22
84 -15z m1014 -37 c1 -30 -1 -111 -5 -180 l-8 -125 -30 -3 c-16 -1 -86 8 -155
20 l-125 23 -3 130 c-1 72 2 137 7 145 7 10 52 20 143 31 181 23 172 25 176
-41z m-1784 34 c32 -32 12 -114 -28 -114 -26 0 -38 28 -31 72 4 24 9 46 12 51
7 12 31 8 47 -9z m204 -12 c3 -9 -2 -13 -14 -10 -9 1 -19 9 -22 16 -3 9 2 13
14 10 9 -1 19 -9 22 -16z m-120 -36 c4 -29 -14 -60 -29 -50 -11 6 -12 68 -2
78 13 13 28 -1 31 -28z m556 18 c13 -34 7 -44 -29 -44 -42 0 -58 25 -30 46 25
19 51 18 59 -2z m786 -79 c0 -45 -3 -103 -6 -129 -6 -44 -8 -46 -38 -46 -44 1
-165 25 -176 36 -11 12 9 185 24 201 11 12 161 32 184 25 8 -3 12 -29 12 -87z
m-1225 45 c37 -14 31 -27 -17 -33 -48 -7 -73 8 -62 37 7 18 23 17 79 -4z m980
10 c8 -13 -13 -172 -24 -183 -11 -11 -139 9 -158 25 -14 11 -18 115 -5 135 4
6 39 15 77 21 97 13 103 13 110 2z m-655 -20 c0 -5 -4 -10 -10 -10 -5 0 -10 5
-10 10 0 6 5 10 10 10 6 0 10 -4 10 -10z m428 -67 l3 -63 -39 0 c-49 0 -62 14
-62 67 0 48 17 64 65 60 30 -2 30 -3 33 -64z m-133 2 l0 -40 -48 2 c-52 1 -77
15 -77 42 0 30 23 42 75 39 l50 -3 0 -40z m-157 6 c-4 -22 -52 -21 -56 1 -2 9
4 18 15 20 27 6 44 -3 41 -21z m-570 -35 c-2 -11 -10 -22 -19 -24 -21 -4 -33
26 -18 44 15 18 41 5 37 -20z m-170 -33 c11 -34 10 -40 -9 -55 -12 -10 -29
-18 -39 -18 -21 0 -86 98 -73 111 11 11 75 16 94 7 8 -3 21 -24 27 -45z m87
17 c0 -28 -4 -36 -21 -38 -17 -2 -24 5 -33 29 -13 39 -7 51 27 47 24 -3 27 -8
27 -38z m-269 22 c17 -11 74 -107 74 -124 0 -19 -107 -65 -119 -52 -11 12 -51
134 -51 155 0 23 71 38 96 21z m-132 -34 c8 -18 22 -62 32 -97 17 -61 17 -64
-1 -77 -33 -25 -155 -68 -164 -58 -5 5 -11 63 -12 129 l-4 120 30 6 c17 4 47
7 68 8 34 1 39 -2 51 -31z m-180 -116 c7 -110 6 -136 -5 -147 -16 -15 -255
-115 -275 -115 -14 0 -19 33 -34 235 -6 82 -6 133 0 139 10 10 179 24 260 22
l45 -1 9 -133z m1185 119 c23 -15 -5 -53 -37 -49 -35 4 -42 35 -10 47 29 12
30 12 47 2z m-1544 -13 c2 -7 11 -96 19 -198 11 -142 12 -188 3 -196 -17 -16
-236 -104 -258 -104 -20 0 -17 -9 -99 290 -27 101 -46 188 -42 192 4 4 68 11
142 16 203 14 230 14 235 0z m1175 -13 c0 -8 -7 -15 -15 -15 -16 0 -20 12 -8
23 11 12 23 8 23 -8z m522 -1 c14 -9 9 -22 -23 -59 -36 -41 -58 -44 -95 -12
l-26 23 28 33 c25 30 31 32 67 27 22 -4 44 -9 49 -12z m-2124 -6 c5 -7 40
-123 77 -257 54 -196 65 -245 54 -252 -46 -28 -501 -210 -514 -206 -8 4 -15
19 -16 34 0 15 -10 167 -22 336 -12 170 -19 313 -16 319 5 7 83 16 206 23 109
7 203 13 209 13 6 1 16 -4 22 -10z m1480 -5 c-3 -19 -48 -32 -48 -14 0 10 28
30 43 31 5 0 7 -8 5 -17z m192 3 c0 -16 -18 -31 -27 -22 -8 8 5 36 17 36 5 0
10 -6 10 -14z m56 -7 c3 -6 1 -16 -5 -22 -9 -9 -14 -8 -21 3 -9 15 -4 30 10
30 5 0 12 -5 16 -11z m542 -5 c12 -4 22 -14 22 -23 0 -32 -53 -161 -66 -161
-21 0 -124 69 -124 83 0 7 18 33 41 60 42 48 67 57 127 41z m-2753 -14 c4 -6
18 -167 32 -357 20 -285 22 -348 11 -359 -20 -19 -398 -175 -417 -172 -17 3
-16 0 -85 576 -23 190 -31 290 -23 293 2 2 386 25 439 28 20 0 40 -4 43 -9z
m1883 -12 c17 -17 15 -26 -8 -38 -15 -8 -21 -6 -30 10 -18 34 11 55 38 28z
m153 2 c42 -23 9 -69 -35 -49 -30 14 -34 34 -8 48 21 13 20 13 43 1z m344 -6
c25 -25 2 -43 -25 -19 -11 10 -20 22 -20 27 0 14 28 9 45 -8z m543 0 c31 -4
56 -13 59 -21 5 -13 -42 -202 -59 -235 -5 -10 -14 -18 -20 -18 -19 0 -148 81
-148 94 0 18 52 170 63 184 6 7 20 11 31 8 12 -3 45 -8 74 -12z m-1111 -40
c17 -26 16 -27 -11 -50 -35 -31 -42 -30 -61 6 -19 38 -20 37 13 54 37 20 39
20 59 -10z m327 13 c23 -17 11 -47 -20 -47 -29 0 -41 24 -24 45 15 18 21 19
44 2z m1009 -12 c43 -8 81 -15 83 -15 2 0 4 -10 4 -23 0 -26 -95 -316 -108
-329 -13 -13 -167 85 -170 109 -3 17 13 81 64 256 6 21 26 21 127 2z m-894
-14 c13 -23 5 -31 -28 -31 -35 0 -55 15 -48 34 9 23 64 21 76 -3z m74 4 c8
-19 -13 -31 -24 -14 -13 20 -11 29 5 29 8 0 16 -7 19 -15z m157 -14 c24 -19
24 -20 6 -40 -25 -28 -40 -26 -65 5 -38 48 7 74 59 35z m-502 -11 c37 -23 37
-22 17 -60 -20 -38 -31 -38 -72 2 -65 63 -24 106 55 58z m-278 -22 c11 -18 20
-38 20 -44 0 -12 -83 -74 -99 -74 -13 0 -61 74 -61 94 0 13 79 53 108 55 7 1
21 -14 32 -31z m1735 7 c76 -13 142 -28 147 -33 9 -9 -136 -450 -154 -469 -10
-10 -38 3 -138 65 -69 43 -126 85 -128 95 -3 16 89 309 110 350 11 21 -2 22
163 -8z m-1025 -90 c-19 -35 -33 -31 -60 17 -22 40 -22 42 -4 55 16 12 22 10
48 -16 28 -28 29 -32 16 -56z m-511 22 c20 -21 40 -45 44 -53 5 -8 -10 -48
-37 -103 -42 -83 -61 -109 -72 -99 -5 6 -64 229 -64 245 0 16 71 64 83 56 5
-3 26 -24 46 -46z m236 -2 l0 -50 -50 3 c-46 4 -75 15 -75 31 0 3 9 21 20 39
19 30 24 33 63 30 l42 -3 0 -50z m518 -12 c20 -13 37 -27 37 -31 0 -5 -16 -28
-36 -51 l-37 -43 -63 63 c-35 35 -64 69 -64 75 0 7 12 22 26 33 l27 21 36 -22
c20 -12 53 -32 74 -45z m-401 51 c31 -5 42 -14 63 -50 45 -77 33 -85 -85 -61
-54 12 -55 13 -58 51 -6 67 2 73 80 60z m1597 -40 c113 -19 211 -41 217 -47 9
-9 -23 -87 -126 -312 -112 -244 -141 -300 -157 -300 -23 0 -311 174 -318 193
-3 9 97 318 160 490 6 16 -14 18 224 -24z m-2299 -21 c16 -27 30 -54 30 -60 0
-18 -187 -156 -203 -150 -20 7 -61 167 -47 181 14 15 150 74 172 75 11 1 30
-18 48 -46z m227 -148 c38 -154 39 -164 13 -215 -33 -65 -29 -72 -115 174
l-39 109 40 34 c21 18 45 32 53 30 10 -1 26 -46 48 -132z m746 77 c31 -32 57
-64 57 -72 0 -17 -87 -73 -100 -65 -13 8 -70 116 -70 132 0 20 30 63 44 63 6
0 37 -26 69 -58z m2082 -37 c518 -88 485 -82 485 -100 0 -9 -100 -229 -222
-491 -170 -365 -225 -474 -238 -472 -26 5 -800 489 -800 501 0 12 269 606 283
625 5 6 19 12 31 12 11 0 219 -34 461 -75z m-2477 31 c10 -10 11 -35 6 -105
-8 -105 7 -94 -148 -111 -57 -6 -103 -7 -108 -2 -10 10 85 221 107 238 18 13
123 -2 143 -20z m672 -5 c98 -58 98 -58 44 -127 -25 -32 -51 -62 -57 -66 -14
-8 -137 109 -137 130 0 14 68 102 78 102 3 0 36 -18 72 -39z m-1486 -66 c14
-52 26 -97 26 -100 0 -10 -187 -145 -201 -145 -18 0 -144 220 -132 231 14 14
237 107 259 108 19 1 25 -11 48 -94z m981 55 c39 -6 77 -18 86 -26 19 -17 64
-112 57 -120 -8 -8 -259 -34 -269 -28 -5 3 -9 45 -9 94 0 92 4 101 45 94 11
-1 52 -8 90 -14z m-623 -185 c31 -88 57 -170 57 -183 1 -30 -76 -182 -92 -182
-13 0 -240 343 -244 369 -3 19 185 162 207 158 10 -1 35 -60 72 -162z m1348
60 c38 -25 70 -48 70 -53 0 -4 -32 -47 -70 -95 -61 -75 -74 -86 -89 -77 -30
16 -122 123 -117 136 13 33 101 134 118 134 10 0 49 -20 88 -45z m-1986 -84
c36 -65 66 -121 66 -125 0 -14 -231 -178 -244 -173 -17 7 -160 265 -160 291
-1 15 24 30 119 72 66 29 127 52 136 53 11 1 39 -38 83 -118z m1650 60 c32
-32 56 -65 54 -71 -2 -7 -38 -25 -81 -41 -88 -33 -90 -32 -132 52 l-25 49 47
35 c27 19 55 35 63 35 9 0 42 -27 74 -59z m2761 -11 c158 -27 290 -52 293 -54
3 -3 1 -15 -4 -25 -24 -52 -731 -1060 -743 -1061 -22 0 -311 183 -311 198 0
11 375 824 436 945 14 26 28 47 33 47 5 0 138 -22 296 -50z m-2979 -28 c20
-14 57 -90 51 -106 -5 -11 -20 -16 -54 -17 -26 0 -102 -4 -168 -8 -66 -4 -126
-6 -132 -3 -8 2 -13 22 -13 47 0 23 6 47 13 53 9 8 118 24 282 41 6 0 15 -3
21 -7z m-986 -200 c63 -97 120 -187 128 -199 12 -19 8 -32 -42 -132 -36 -71
-60 -109 -68 -105 -22 9 -340 465 -334 479 7 19 178 144 191 139 5 -3 62 -84
125 -182z m1790 107 c71 -44 130 -84 130 -88 0 -17 -183 -246 -199 -249 -20
-3 -221 206 -221 229 1 17 137 189 150 189 5 0 68 -36 140 -81z m-2534 -97
c46 -84 84 -157 84 -163 0 -5 -138 -113 -307 -239 -209 -156 -311 -226 -318
-219 -11 11 -104 527 -98 544 4 12 533 236 547 232 5 -2 46 -71 92 -155z
m1392 115 c5 -58 -6 -64 -126 -71 -59 -4 -123 -8 -143 -10 -57 -6 -64 4 -40
53 12 22 22 41 24 42 11 5 220 27 247 25 33 -1 35 -3 38 -39z m3790 22 c59
-10 72 -16 70 -29 -3 -20 -745 -790 -760 -790 -6 0 -8 6 -5 13 8 21 558 811
570 819 7 5 21 6 32 4 11 -2 53 -10 93 -17z m-3067 -81 c32 -35 58 -71 59 -80
0 -18 -160 -140 -187 -142 -17 -1 -125 189 -121 213 3 17 127 68 167 70 17 1
40 -17 82 -61z m-289 -35 c8 -10 38 -62 67 -117 44 -82 51 -100 39 -111 -10
-10 -64 -11 -259 -6 -135 4 -252 11 -259 16 -10 6 -11 31 -7 103 3 52 10 99
15 104 5 5 69 13 143 17 225 14 244 13 261 -6z m-444 -93 c2 -47 0 -96 -3
-109 l-6 -24 -202 7 c-111 4 -206 11 -210 16 -10 9 68 169 87 176 14 5 266 22
306 20 24 -1 25 -3 28 -86z m-810 -174 c94 -134 172 -249 172 -255 0 -16 -134
-281 -142 -281 -11 0 -453 588 -453 602 0 17 213 178 234 178 9 -1 86 -99 189
-244z m2287 141 c82 -51 151 -100 153 -108 3 -16 -262 -319 -278 -319 -13 0
-235 241 -234 254 1 14 193 266 203 266 3 0 74 -42 156 -93z m-530 -62 c59
-63 105 -120 103 -126 -5 -14 -298 -131 -315 -125 -15 6 -107 175 -107 198 -1
12 34 44 99 92 55 41 103 75 106 75 4 1 55 -51 114 -114z m-3000 53 c19 -82
94 -542 89 -550 -16 -25 -487 -369 -495 -361 -10 10 -52 651 -47 716 l3 39
210 88 c116 49 216 89 222 89 7 1 15 -9 18 -21z m1023 -402 c127 -170 232
-311 232 -315 0 -4 -48 -103 -107 -221 -76 -152 -113 -215 -124 -214 -9 1
-189 122 -400 269 -425 297 -461 324 -457 336 5 14 603 459 613 455 6 -1 115
-141 243 -310z m1000 278 c21 -4 22 -9 22 -108 0 -71 -4 -107 -12 -113 -8 -6
-126 -13 -276 -16 -210 -4 -264 -3 -268 8 -5 12 84 203 108 232 7 9 59 11 206
7 109 -3 207 -7 220 -10z m675 -104 c29 -54 46 -95 40 -101 -4 -4 -157 -10
-338 -11 l-330 -3 -3 55 c-2 30 0 79 3 108 l7 54 285 -5 286 -6 50 -91z m1432
-136 c209 -129 386 -241 393 -248 11 -10 11 -15 0 -23 -15 -12 -594 -323 -602
-323 -2 0 -112 113 -245 251 -162 170 -238 256 -233 265 21 37 278 314 292
314 9 0 187 -106 395 -236z m-866 36 c79 -84 110 -124 104 -133 -18 -32 -317
-298 -330 -295 -19 4 -224 377 -220 402 1 14 41 34 157 81 85 34 160 63 166
64 5 0 61 -53 123 -119z m-378 -247 c61 -115 113 -210 115 -213 1 -3 -1 -12
-6 -19 -6 -11 -87 -8 -466 19 -292 20 -463 36 -470 43 -13 13 -3 342 10 355 6
5 148 10 623 20 l81 2 113 -207z m-859 12 c-1 -93 -7 -174 -12 -179 -10 -10
-672 33 -692 45 -19 12 119 288 147 294 24 6 238 11 425 10 l135 0 -3 -170z
m1618 -161 c124 -130 226 -241 228 -247 1 -7 -118 -86 -264 -176 -193 -119
-270 -162 -281 -155 -20 13 -272 485 -267 499 8 19 333 315 347 315 6 0 113
-106 237 -236z m-3083 -155 c230 -160 426 -299 436 -309 17 -16 13 -27 -102
-259 -67 -133 -121 -246 -121 -251 0 -6 6 -10 14 -10 7 0 65 104 134 245 106
214 124 245 144 245 13 0 127 -9 253 -19 127 -11 327 -27 445 -37 121 -9 220
-22 226 -28 18 -17 -18 -863 -37 -880 -13 -12 -1545 -376 -1581 -376 -10 0
-18 5 -18 11 0 7 95 187 211 401 188 348 229 435 185 387 -7 -8 -111 -195
-230 -416 -119 -220 -224 -404 -233 -407 -9 -4 -20 -3 -25 2 -18 18 -659 1586
-656 1604 4 21 508 400 524 394 7 -3 201 -136 431 -297z m4179 135 c85 -52
154 -98 154 -102 -1 -12 -535 -552 -546 -552 -14 0 -396 400 -392 412 3 9 605
335 622 337 4 1 78 -42 162 -95z m-3039 -17 c166 -13 307 -27 312 -32 12 -12
-6 -446 -19 -459 -5 -5 -175 5 -392 23 -531 43 -519 42 -524 56 -3 7 42 108
100 224 l106 211 58 -1 c31 0 193 -10 359 -22z m794 -57 c233 -16 450 -31 482
-32 l59 -3 129 -239 c143 -263 144 -266 60 -266 -25 0 -208 13 -406 30 -198
16 -452 37 -565 46 -117 9 -210 21 -216 28 -9 8 -9 67 -3 226 10 221 12 240
27 240 5 0 200 -13 433 -30z m1557 -332 c229 -238 261 -273 254 -284 -13 -19
-714 -356 -722 -348 -5 5 -59 101 -120 214 -82 150 -109 209 -102 220 5 8 56
44 113 79 340 210 423 261 430 261 5 0 71 -64 147 -142z m-1564 -183 c237 -20
509 -42 603 -50 132 -11 179 -12 198 -3 14 6 27 9 30 6 19 -18 225 -414 221
-424 -2 -6 -83 -30 -178 -53 -922 -219 -1354 -318 -1362 -314 -5 3 -6 79 -2
177 18 459 27 672 31 684 5 15 -41 18 459 -23z m1736 -205 c0 -18 -450 -550
-465 -550 -14 0 -145 232 -145 257 0 13 568 300 598 302 6 1 12 -4 12 -9z
m-573 -450 c41 -74 73 -142 71 -152 -3 -19 -1773 -1828 -1788 -1828 -14 0 -13
56 10 600 10 261 25 623 32 803 7 195 16 334 22 342 12 15 1516 375 1555 372
20 -2 37 -24 98 -137z" fill="white" stroke-width="150"/>
</g>
</svg>
